# Blender v2.78 (sub 0) OBJ File: ''
# www.blender.org
o Cube
v 16.860321 -16.860321 -16.540941
v 16.860321 -16.860321 17.179699
v -16.860323 -16.860321 17.179695
v -16.860315 -16.860321 -16.540949
v 16.860329 16.860321 -16.540934
v 16.860310 16.860321 17.179708
v -16.860327 16.860321 17.179693
v -16.860319 16.860321 -16.540943
vn 0.0000 -1.0000 0.0000
vn 0.0000 1.0000 0.0000
vn 1.0000 0.0000 0.0000
vn -0.0000 -0.0000 1.0000
vn -1.0000 -0.0000 -0.0000
vn 0.0000 0.0000 -1.0000
s off
f 1/1/1 2/2/1 3/3/1 4/4/1
f 5/5/2 8/6/2 7/7/2 6/8/2
f 1/9/3 5/10/3 6/11/3 2/12/3
f 2/13/4 6/14/4 7/15/4 3/16/4
f 3/17/5 7/18/5 8/19/5 4/20/5
f 5/21/6 1/22/6 4/23/6 8/24/6
