# Blender v2.78 (sub 0) OBJ File: ''
# www.blender.org
mtllib anim_000187.mtl
o Cube
v 35.142349 31.165052 31.539803
v 44.849892 15.062532 -31.025986
v 26.926268 -46.393276 -17.990116
v 17.218727 -30.290739 44.575680
v -26.926264 46.393284 17.990101
v -17.218731 30.290728 -44.575684
v -35.142353 -31.165064 -31.539791
v -44.849892 -15.062529 31.025986
vn -0.9501 0.2331 -0.2074
vn 0.9501 -0.2331 0.2074
vn -0.2744 -0.9407 0.1995
vn -0.1486 0.2465 0.9577
vn 0.2744 0.9407 -0.1995
vn 0.1486 -0.2465 -0.9577
usemtl Material
s off
f 1//1 2//1 3//1 4//1
f 5//2 8//2 7//2 6//2
f 1//3 5//3 6//3 2//3
f 2//4 6//4 7//4 3//4
f 3//5 7//5 8//5 4//5
f 5//6 1//6 4//6 8//6
