# Blender v2.78 (sub 0) OBJ File: ''
# www.blender.org
mtllib anim_000234.mtl
o Cube
v 29.100994 -24.455345 41.905521
v 24.447498 -47.304329 -19.121315
v -39.827621 -35.623711 -18.593445
v -35.174110 -12.774723 42.433395
v 39.827633 35.623703 18.593433
v 35.174095 12.774723 -42.433403
v -29.101006 24.455349 -41.905510
v -24.447495 47.304329 19.121315
vn 0.1642 0.9196 -0.3568
vn -0.1642 -0.9196 0.3568
vn -0.9839 0.1788 0.0081
vn 0.0712 0.3497 0.9341
vn 0.9839 -0.1788 -0.0081
vn -0.0712 -0.3497 -0.9341
usemtl Material
s off
f 1//1 2//1 3//1 4//1
f 5//2 8//2 7//2 6//2
f 1//3 5//3 6//3 2//3
f 2//4 6//4 7//4 3//4
f 3//5 7//5 8//5 4//5
f 5//6 1//6 4//6 8//6
