# Blender v2.78 (sub 0) OBJ File: ''
# www.blender.org
mtllib anim_000140.mtl
o Cube
v 43.209785 7.941586 35.648983
v 48.493862 -13.458282 -25.850037
v -1.559464 -54.259289 -15.953116
v -6.843529 -32.859409 45.545910
v 1.559471 54.259293 15.953103
v 6.843521 32.859402 -45.545914
v -43.209793 -7.941589 -35.648972
v -48.493858 13.458284 25.850037
vn -0.6375 0.7090 -0.3015
vn 0.6375 -0.7090 0.3015
vn -0.7662 -0.6245 0.1515
vn -0.0809 0.3276 0.9414
vn 0.7662 0.6245 -0.1515
vn 0.0809 -0.3276 -0.9414
usemtl Material
s off
f 1//1 2//1 3//1 4//1
f 5//2 8//2 7//2 6//2
f 1//3 5//3 6//3 2//3
f 2//4 6//4 7//4 3//4
f 3//5 7//5 8//5 4//5
f 5//6 1//6 4//6 8//6
