# Blender v2.78 (sub 0) OBJ File: ''
# www.blender.org
mtllib anim_000189.mtl
o Cube
v 41.274529 19.151333 33.625053
v 48.984711 -0.150366 -28.310429
v 12.076832 -52.749184 -16.512978
v 4.366659 -33.447468 45.422504
v -12.076823 52.749191 16.512966
v -4.366663 33.447456 -45.422512
v -41.274536 -19.151340 -33.625042
v -48.984707 0.150368 28.310429
vn -0.8166 0.5143 -0.2619
vn 0.8166 -0.5143 0.2619
vn -0.5649 -0.8051 0.1806
vn -0.1180 0.2954 0.9480
vn 0.5649 0.8051 -0.1806
vn 0.1180 -0.2954 -0.9480
usemtl Material
s off
f 1//1 2//1 3//1 4//1
f 5//2 8//2 7//2 6//2
f 1//3 5//3 6//3 2//3
f 2//4 6//4 7//4 3//4
f 3//5 7//5 8//5 4//5
f 5//6 1//6 4//6 8//6
