# Blender v2.78 (sub 0) OBJ File: ''
# www.blender.org
mtllib anim_000123.mtl
o Cube
v -31.116062 34.492485 32.296497
v -30.443645 34.397839 -33.029953
v 34.780045 30.734642 -32.353279
v 34.107613 30.829287 32.973179
v -34.780056 -30.734642 32.353268
v -34.107601 -30.829288 -32.973186
v 31.116074 -34.492485 -32.296490
v 30.443642 -34.397839 33.029953
vn -0.0561 -0.9984 0.0009
vn 0.0561 0.9984 -0.0009
vn 0.9984 -0.0561 0.0104
vn -0.0103 0.0014 0.9999
vn -0.9984 0.0561 -0.0104
vn 0.0103 -0.0014 -0.9999
usemtl Material
s off
f 1//1 2//1 3//1 4//1
f 5//2 8//2 7//2 6//2
f 1//3 5//3 6//3 2//3
f 2//4 6//4 7//4 3//4
f 3//5 7//5 8//5 4//5
f 5//6 1//6 4//6 8//6
