# Blender v2.78 (sub 0) OBJ File: ''
# www.blender.org
mtllib anim_000164.mtl
o Cube
v -33.510128 -17.788471 41.971970
v -45.848682 -24.993868 -21.776352
v -28.156269 37.023182 -32.210445
v -15.817720 44.228569 31.537884
v 28.156265 -37.023193 32.210434
v 15.817721 -44.228561 -31.537895
v 33.510136 17.788485 -41.971962
v 45.848679 24.993868 21.776352
vn 0.9439 -0.2944 -0.1494
vn -0.9439 0.2944 0.1494
vn 0.2708 0.9493 -0.1597
vn 0.1889 0.1103 0.9758
vn -0.2708 -0.9493 0.1597
vn -0.1889 -0.1103 -0.9758
usemtl Material
s off
f 1//1 2//1 3//1 4//1
f 5//2 8//2 7//2 6//2
f 1//3 5//3 6//3 2//3
f 2//4 6//4 7//4 3//4
f 3//5 7//5 8//5 4//5
f 5//6 1//6 4//6 8//6
