# Blender v2.78 (sub 0) OBJ File: ''
# www.blender.org
mtllib anim_000200.mtl
o Cube
v 14.677107 -32.757824 43.732277
v 5.871672 -53.446609 -17.606487
v -49.008461 -18.230417 -21.606182
v -40.203011 2.458363 39.732594
v 49.008469 18.230408 21.606171
v 40.203003 -2.458359 -39.732601
v -14.677116 32.757832 -43.732269
v -5.871670 53.446606 17.606487
vn 0.5255 0.7805 -0.3387
vn -0.5255 -0.7805 0.3387
vn -0.8400 0.5391 -0.0612
vn 0.1348 0.3167 0.9389
vn 0.8400 -0.5391 0.0612
vn -0.1348 -0.3167 -0.9389
usemtl Material
s off
f 1//1 2//1 3//1 4//1
f 5//2 8//2 7//2 6//2
f 1//3 5//3 6//3 2//3
f 2//4 6//4 7//4 3//4
f 3//5 7//5 8//5 4//5
f 5//6 1//6 4//6 8//6
