# Blender v2.78 (sub 0) OBJ File: ''
# www.blender.org
mtllib anim_000085.mtl
o Cube
v -10.985735 10.985735 10.985734
v -10.985735 10.985735 -10.985735
v 10.985736 10.985735 -10.985733
v 10.985731 10.985735 10.985739
v -10.985740 -10.985735 10.985729
v -10.985727 -10.985735 -10.985742
v 10.985739 -10.985735 -10.985731
v 10.985734 -10.985735 10.985735
vn 0.0000 -1.0000 0.0000
vn 0.0000 1.0000 0.0000
vn 1.0000 0.0000 0.0000
vn -0.0000 -0.0000 1.0000
vn -1.0000 -0.0000 -0.0000
vn 0.0000 0.0000 -1.0000
usemtl Material
s off
f 1//1 2//1 3//1 4//1
f 5//2 8//2 7//2 6//2
f 1//3 5//3 6//3 2//3
f 2//4 6//4 7//4 3//4
f 3//5 7//5 8//5 4//5
f 5//6 1//6 4//6 8//6
