# Blender v2.78 (sub 0) OBJ File: ''
# www.blender.org
mtllib anim_000073.mtl
o Cube
v -24.160049 24.160049 24.160048
v -24.160049 24.160049 -24.160049
v 24.160053 24.160049 -24.160046
v 24.160040 24.160049 24.160059
v -24.160061 -24.160049 24.160036
v -24.160034 -24.160049 -24.160065
v 24.160059 -24.160049 -24.160040
v 24.160048 -24.160049 24.160049
vn 0.0000 -1.0000 0.0000
vn 0.0000 1.0000 0.0000
vn 1.0000 0.0000 0.0000
vn -0.0000 -0.0000 1.0000
vn -1.0000 -0.0000 -0.0000
vn 0.0000 0.0000 -1.0000
usemtl Material
s off
f 1//1 2//1 3//1 4//1
f 5//2 8//2 7//2 6//2
f 1//3 5//3 6//3 2//3
f 2//4 6//4 7//4 3//4
f 3//5 7//5 8//5 4//5
f 5//6 1//6 4//6 8//6
