# Blender v2.78 (sub 0) OBJ File: ''
# www.blender.org
mtllib anim_000028.mtl
o Cube
v -12.940457 12.940457 12.940456
v -12.940457 12.940457 -12.940457
v 12.940459 12.940457 -12.940455
v 12.940453 12.940457 12.940462
v -12.940463 -12.940457 12.940451
v -12.940449 -12.940457 -12.940465
v 12.940462 -12.940457 -12.940453
v 12.940456 -12.940457 12.940457
vn 0.0000 -1.0000 -0.0000
vn 0.0000 1.0000 0.0000
vn 1.0000 0.0000 0.0000
vn -0.0000 -0.0000 1.0000
vn -1.0000 -0.0000 -0.0000
vn 0.0000 0.0000 -1.0000
usemtl Material
s off
f 1//1 2//1 3//1 4//1
f 5//2 8//2 7//2 6//2
f 1//3 5//3 6//3 2//3
f 2//4 6//4 7//4 3//4
f 3//5 7//5 8//5 4//5
f 5//6 1//6 4//6 8//6
