# Blender v2.78 (sub 0) OBJ File: ''
# www.blender.org
mtllib anim_000162.mtl
o Cube
v -24.586285 -26.665514 43.421989
v -37.748318 -37.263718 -19.684624
v -39.383194 27.198677 -30.169527
v -26.221159 37.796864 32.937096
v 39.383194 -27.198689 30.169519
v 26.221157 -37.796852 -32.937107
v 24.586285 26.665527 -43.421982
v 37.748318 37.263710 19.684624
vn 0.9792 -0.0082 -0.2029
vn -0.9792 0.0082 0.2029
vn -0.0250 0.9867 -0.1605
vn 0.2015 0.1622 0.9660
vn 0.0250 -0.9867 0.1605
vn -0.2015 -0.1622 -0.9660
usemtl Material
s off
f 1//1 2//1 3//1 4//1
f 5//2 8//2 7//2 6//2
f 1//3 5//3 6//3 2//3
f 2//4 6//4 7//4 3//4
f 3//5 7//5 8//5 4//5
f 5//6 1//6 4//6 8//6
