# Blender v2.78 (sub 0) OBJ File: ''
# www.blender.org
mtllib anim_000195.mtl
o Cube
v 34.134544 -19.196117 40.833153
v 31.501673 -42.452389 -20.160450
v -33.774242 -41.851326 -17.571898
v -31.141352 -18.595051 43.421707
v 33.774254 41.851318 17.571886
v 31.141340 18.595047 -43.421715
v -34.134556 19.196121 -40.833141
v -31.501669 42.452389 20.160450
vn -0.0055 0.9344 -0.3561
vn 0.0055 -0.9344 0.3561
vn -0.9992 0.0092 0.0396
vn 0.0403 0.3560 0.9336
vn 0.9992 -0.0092 -0.0396
vn -0.0403 -0.3560 -0.9336
usemtl Material
s off
f 1//1 2//1 3//1 4//1
f 5//2 8//2 7//2 6//2
f 1//3 5//3 6//3 2//3
f 2//4 6//4 7//4 3//4
f 3//5 7//5 8//5 4//5
f 5//6 1//6 4//6 8//6
