# Blender v2.78 (sub 0) OBJ File: ''
# www.blender.org
mtllib anim_000002.mtl
o Cube
v 31.568359 -2.524538 -29.058563
v 37.967102 -0.835596 20.127985
v 1.686261 -34.188484 25.993057
v -4.712475 -35.877419 -23.193501
v -1.686253 34.188492 -25.993048
v 4.712469 35.877411 23.193508
v -31.568367 2.524532 29.058558
v -37.967102 0.835598 -20.127985
vn 0.6701 -0.7397 -0.0618
vn -0.6701 0.7397 0.0618
vn 0.7310 0.6720 -0.1182
vn 0.1289 0.0340 0.9911
vn -0.7310 -0.6720 0.1182
vn -0.1289 -0.0340 -0.9911
usemtl Material
s off
f 1//1 2//1 3//1 4//1
f 5//2 8//2 7//2 6//2
f 1//3 5//3 6//3 2//3
f 2//4 6//4 7//4 3//4
f 3//5 7//5 8//5 4//5
f 5//6 1//6 4//6 8//6
