# Blender v2.78 (sub 0) OBJ File: ''
# www.blender.org
mtllib anim_000209.mtl
o Cube
v -32.646069 -18.912518 42.161064
v -45.128372 -26.485245 -21.516651
v -29.562454 36.089584 -32.009495
v -17.080149 43.662296 31.668232
v 29.562449 -36.089600 32.009487
v 17.080151 -43.662289 -31.668243
v 32.646072 18.912531 -42.161057
v 45.128372 26.485241 21.516651
vn 0.9522 -0.2629 -0.1554
vn -0.9522 0.2629 0.1554
vn 0.2383 0.9578 -0.1606
vn 0.1911 0.1159 0.9747
vn -0.2383 -0.9578 0.1606
vn -0.1911 -0.1159 -0.9747
usemtl Material
s off
f 1//1 2//1 3//1 4//1
f 5//2 8//2 7//2 6//2
f 1//3 5//3 6//3 2//3
f 2//4 6//4 7//4 3//4
f 3//5 7//5 8//5 4//5
f 5//6 1//6 4//6 8//6
