# Blender v2.78 (sub 0) OBJ File: ''
# www.blender.org
mtllib anim_000160.mtl
o Cube
v -10.551777 -33.462967 44.383492
v -23.274857 -48.345879 -17.943293
v -48.397293 11.268994 -27.050257
v -35.674202 26.151894 35.276535
v 48.397293 -11.269006 27.050245
v 35.674198 -26.151886 -35.276546
v 10.551773 33.462978 -44.383484
v 23.274857 48.345879 17.943293
vn 0.9023 0.3397 -0.2653
vn -0.9023 -0.3397 0.2653
vn -0.3845 0.9125 -0.1394
vn 0.1948 0.2278 0.9540
vn 0.3845 -0.9125 0.1394
vn -0.1948 -0.2278 -0.9540
usemtl Material
s off
f 1//1 2//1 3//1 4//1
f 5//2 8//2 7//2 6//2
f 1//3 5//3 6//3 2//3
f 2//4 6//4 7//4 3//4
f 3//5 7//5 8//5 4//5
f 5//6 1//6 4//6 8//6
