# Blender v2.78 (sub 0) OBJ File: ''
# www.blender.org
mtllib anim_000230.mtl
o Cube
v 43.151646 4.050339 36.366673
v 47.485191 -17.906895 -25.010086
v -6.250729 -53.931404 -15.916549
v -10.584263 -31.974161 45.460213
v 6.250738 53.931408 15.916533
v 10.584255 31.974152 -45.460220
v -43.151657 -4.050341 -36.366661
v -47.485191 17.906897 25.010086
vn -0.5648 0.7635 -0.3130
vn 0.5648 -0.7635 0.3130
vn -0.8225 -0.5514 0.1392
vn -0.0663 0.3361 0.9395
vn 0.8225 0.5514 -0.1392
vn 0.0663 -0.3361 -0.9395
usemtl Material
s off
f 1//1 2//1 3//1 4//1
f 5//2 8//2 7//2 6//2
f 1//3 5//3 6//3 2//3
f 2//4 6//4 7//4 3//4
f 3//5 7//5 8//5 4//5
f 5//6 1//6 4//6 8//6
