# Blender v2.78 (sub 0) OBJ File: ''
# www.blender.org
mtllib anim_000178.mtl
o Cube
v -3.293194 48.367981 29.166719
v 4.870232 43.792458 -35.489521
v 49.908131 -2.673109 -26.514849
v 41.744698 1.902422 38.141392
v -49.908142 2.673119 26.514837
v -41.744690 -1.902430 -38.141399
v 3.293200 -48.367989 -29.166712
v -4.870234 -43.792458 35.489521
vn -0.7135 -0.6994 -0.0406
vn 0.7135 0.6994 0.0406
vn 0.6894 -0.7112 0.1374
vn -0.1250 0.0700 0.9897
vn -0.6894 0.7112 -0.1374
vn 0.1250 -0.0700 -0.9897
usemtl Material
s off
f 1//1 2//1 3//1 4//1
f 5//2 8//2 7//2 6//2
f 1//3 5//3 6//3 2//3
f 2//4 6//4 7//4 3//4
f 3//5 7//5 8//5 4//5
f 5//6 1//6 4//6 8//6
