# Blender v2.78 (sub 0) OBJ File: ''
# www.blender.org
mtllib anim_000086.mtl
o Cube
v -11.235367 11.235367 11.235366
v -11.235367 11.235367 -11.235367
v 11.235368 11.235367 -11.235365
v 11.235363 11.235367 11.235371
v -11.235373 -11.235367 11.235361
v -11.235359 -11.235367 -11.235373
v 11.235371 -11.235367 -11.235363
v 11.235366 -11.235367 11.235367
vn 0.0000 -1.0000 0.0000
vn 0.0000 1.0000 0.0000
vn 1.0000 0.0000 0.0000
vn -0.0000 -0.0000 1.0000
vn -1.0000 -0.0000 -0.0000
vn 0.0000 0.0000 -1.0000
usemtl Material
s off
f 1//1 2//1 3//1 4//1
f 5//2 8//2 7//2 6//2
f 1//3 5//3 6//3 2//3
f 2//4 6//4 7//4 3//4
f 3//5 7//5 8//5 4//5
f 5//6 1//6 4//6 8//6
