# Blender v2.78 (sub 0) OBJ File: ''
# www.blender.org
mtllib anim_000119.mtl
o Cube
v -32.569756 32.783684 32.641163
v -32.526878 32.778793 -32.688797
v 32.802677 32.545876 -32.645897
v 32.759785 32.550766 32.684071
v -32.802689 -32.545876 32.645885
v -32.759773 -32.550766 -32.684078
v 32.569767 -32.783684 -32.641155
v 32.526875 -32.778793 32.688797
vn -0.0036 -1.0000 0.0001
vn 0.0036 1.0000 -0.0001
vn 1.0000 -0.0036 0.0007
vn -0.0007 0.0001 1.0000
vn -1.0000 0.0036 -0.0007
vn 0.0007 -0.0001 -1.0000
usemtl Material
s off
f 1//1 2//1 3//1 4//1
f 5//2 8//2 7//2 6//2
f 1//3 5//3 6//3 2//3
f 2//4 6//4 7//4 3//4
f 3//5 7//5 8//5 4//5
f 5//6 1//6 4//6 8//6
