# Blender v2.78 (sub 0) OBJ File: ''
# www.blender.org
mtllib anim_000174.mtl
o Cube
v -20.695532 42.900230 30.533087
v -16.440224 41.598518 -34.645157
v 44.319878 18.007816 -30.207144
v 40.064552 19.309534 34.971104
v -44.319885 -18.007812 30.207132
v -40.064545 -19.309540 -34.971107
v 20.695539 -42.900238 -30.533079
v 16.440222 -41.598518 34.645157
vn -0.3616 -0.9323 -0.0050
vn 0.3616 0.9323 0.0050
vn 0.9300 -0.3611 0.0679
vn -0.0651 0.0199 0.9977
vn -0.9300 0.3611 -0.0679
vn 0.0651 -0.0199 -0.9977
usemtl Material
s off
f 1//1 2//1 3//1 4//1
f 5//2 8//2 7//2 6//2
f 1//3 5//3 6//3 2//3
f 2//4 6//4 7//4 3//4
f 3//5 7//5 8//5 4//5
f 5//6 1//6 4//6 8//6
