# Blender v2.78 (sub 0) OBJ File: ''
# www.blender.org
mtllib anim_000205.mtl
o Cube
v -10.232735 -33.549541 44.392838
v -22.929348 -48.519897 -17.918404
v -48.520218 10.902297 -26.980230
v -35.823597 25.872643 35.331017
v 48.520218 -10.902310 26.980223
v 35.823593 -25.872635 -35.331024
v 10.232733 33.549557 -44.392830
v 22.929348 48.519897 17.918404
vn 0.8993 0.3467 -0.2665
vn -0.8993 -0.3467 0.2665
vn -0.3917 0.9096 -0.1387
vn 0.1943 0.2291 0.9538
vn 0.3917 -0.9096 0.1387
vn -0.1943 -0.2291 -0.9538
usemtl Material
s off
f 1//1 2//1 3//1 4//1
f 5//2 8//2 7//2 6//2
f 1//3 5//3 6//3 2//3
f 2//4 6//4 7//4 3//4
f 3//5 7//5 8//5 4//5
f 5//6 1//6 4//6 8//6
