# Blender v2.78 (sub 0) OBJ File: ''
# www.blender.org
mtllib anim_000214.mtl
o Cube
v -38.421791 23.034130 34.557186
v -41.608055 22.969337 -30.695011
v 21.379307 40.029076 -33.787613
v 24.565556 40.093861 31.464588
v -21.379318 -40.029076 33.787601
v -24.565548 -40.093857 -31.464596
v 38.421803 -23.034126 -34.557178
v 41.608055 -22.969339 30.695011
vn 0.2609 -0.9653 -0.0118
vn -0.2609 0.9653 0.0118
vn 0.9641 0.2611 -0.0473
vn 0.0488 0.0010 0.9988
vn -0.9641 -0.2611 0.0473
vn -0.0488 -0.0010 -0.9988
usemtl Material
s off
f 1//1 2//1 3//1 4//1
f 5//2 8//2 7//2 6//2
f 1//3 5//3 6//3 2//3
f 2//4 6//4 7//4 3//4
f 3//5 7//5 8//5 4//5
f 5//6 1//6 4//6 8//6
