# Blender v2.78 (sub 0) OBJ File: ''
# www.blender.org
mtllib anim_000125.mtl
o Cube
v -30.860723 34.774193 32.239349
v -30.082190 34.661079 -33.085888
v 35.105122 30.417732 -32.301647
v 34.326572 30.530848 33.023598
v -35.105133 -30.417732 32.301636
v -34.326561 -30.530849 -33.023605
v 30.860735 -34.774193 -32.239342
v 30.082186 -34.661079 33.085888
vn -0.0650 -0.9979 0.0010
vn 0.0650 0.9979 -0.0010
vn 0.9978 -0.0650 0.0120
vn -0.0119 0.0017 0.9999
vn -0.9978 0.0650 -0.0120
vn 0.0119 -0.0017 -0.9999
usemtl Material
s off
f 1//1 2//1 3//1 4//1
f 5//2 8//2 7//2 6//2
f 1//3 5//3 6//3 2//3
f 2//4 6//4 7//4 3//4
f 3//5 7//5 8//5 4//5
f 5//6 1//6 4//6 8//6
