# Blender v2.78 (sub 0) OBJ File: ''
# www.blender.org
mtllib anim_000145.mtl
o Cube
v 41.433456 -5.411612 38.144299
v 43.221371 -28.354816 -22.998306
v -17.566677 -51.293266 -16.168407
v -19.354580 -28.350052 44.974209
v 17.566689 51.293266 16.168392
v 19.354572 28.350046 -44.974213
v -41.433468 5.411612 -38.144291
v -43.221367 28.354816 22.998306
vn -0.3653 0.8680 -0.3364
vn 0.3653 -0.8680 0.3364
vn -0.9305 -0.3511 0.1045
vn -0.0274 0.3512 0.9359
vn 0.9305 0.3511 -0.1045
vn 0.0274 -0.3512 -0.9359
usemtl Material
s off
f 1//1 2//1 3//1 4//1
f 5//2 8//2 7//2 6//2
f 1//3 5//3 6//3 2//3
f 2//4 6//4 7//4 3//4
f 3//5 7//5 8//5 4//5
f 5//6 1//6 4//6 8//6
