# Blender v2.78 (sub 0) OBJ File: ''
# www.blender.org
mtllib anim_000250.mtl
o Cube
v -40.673119 -2.269201 39.262608
v -50.318867 -5.519575 -25.269554
v -9.017801 44.348228 -33.954651
v 0.627939 47.598587 30.577518
v 9.017792 -44.348236 33.954643
v -0.627935 -47.598579 -30.577526
v 40.673126 2.269211 -39.262604
v 50.318863 5.519573 25.269554
vn 0.7606 -0.6441 -0.0812
vn -0.7606 0.6441 0.0812
vn 0.6322 0.7633 -0.1329
vn 0.1476 0.0498 0.9878
vn -0.6322 -0.7633 0.1329
vn -0.1476 -0.0498 -0.9878
usemtl Material
s off
f 1//1 2//1 3//1 4//1
f 5//2 8//2 7//2 6//2
f 1//3 5//3 6//3 2//3
f 2//4 6//4 7//4 3//4
f 3//5 7//5 8//5 4//5
f 5//6 1//6 4//6 8//6
