# Blender v2.78 (sub 0) OBJ File: ''
# www.blender.org
mtllib anim_000070.mtl
o Cube
v -31.773582 31.773582 31.773581
v -31.773582 31.773582 -31.773582
v 31.773586 31.773582 -31.773577
v 31.773571 31.773582 31.773594
v -31.773598 -31.773582 31.773565
v -31.773561 -31.773582 -31.773602
v 31.773594 -31.773582 -31.773571
v 31.773581 -31.773582 31.773582
vn 0.0000 -1.0000 -0.0000
vn 0.0000 1.0000 0.0000
vn 1.0000 0.0000 0.0000
vn -0.0000 -0.0000 1.0000
vn -1.0000 -0.0000 -0.0000
vn 0.0000 0.0000 -1.0000
usemtl Material
s off
f 1//1 2//1 3//1 4//1
f 5//2 8//2 7//2 6//2
f 1//3 5//3 6//3 2//3
f 2//4 6//4 7//4 3//4
f 3//5 7//5 8//5 4//5
f 5//6 1//6 4//6 8//6
