# Blender v2.78 (sub 0) OBJ File: ''
# www.blender.org
mtllib anim_000015.mtl
o Cube
v 20.920504 -20.920504 -20.920502
v 20.920504 -20.920504 20.920504
v -20.920506 -20.920504 20.920500
v -20.920496 -20.920504 -20.920511
v 20.920513 20.920504 -20.920492
v 20.920490 20.920504 20.920517
v -20.920511 20.920504 20.920496
v -20.920502 20.920504 -20.920504
vn 0.0000 -1.0000 -0.0000
vn 0.0000 1.0000 -0.0000
vn 1.0000 -0.0000 0.0000
vn -0.0000 -0.0000 1.0000
vn -1.0000 -0.0000 -0.0000
vn 0.0000 0.0000 -1.0000
usemtl Material
s off
f 1//1 2//1 3//1 4//1
f 5//2 8//2 7//2 6//2
f 1//3 5//3 6//3 2//3
f 2//4 6//4 7//4 3//4
f 3//5 7//5 8//5 4//5
f 5//6 1//6 4//6 8//6
