# Blender v2.78 (sub 0) OBJ File: ''
# www.blender.org
mtllib anim_000153.mtl
o Cube
v 22.459709 -29.228451 42.921600
v 15.664453 -51.222244 -18.218437
v -45.201366 -27.551682 -19.968616
v -38.406097 -5.557894 41.171425
v 45.201378 27.551674 19.968605
v 38.406086 5.557896 -41.171432
v -22.459721 29.228458 -42.921589
v -15.664451 51.222240 18.218437
vn 0.3481 0.8691 -0.3513
vn -0.3481 -0.8691 0.3513
vn -0.9317 0.3623 -0.0268
vn 0.1040 0.3367 0.9359
vn 0.9317 -0.3623 0.0268
vn -0.1040 -0.3367 -0.9359
usemtl Material
s off
f 1//1 2//1 3//1 4//1
f 5//2 8//2 7//2 6//2
f 1//3 5//3 6//3 2//3
f 2//4 6//4 7//4 3//4
f 3//5 7//5 8//5 4//5
f 5//6 1//6 4//6 8//6
