# Blender v2.78 (sub 0) OBJ File: ''
# www.blender.org
mtllib anim_000204.mtl
o Cube
v -4.319841 -34.694908 44.481533
v -16.415596 -51.218292 -17.556168
v -50.244709 4.076154 -25.687714
v -38.148945 20.599525 36.349995
v 50.244713 -4.076167 25.687702
v 38.148937 -20.599518 -36.350006
v 4.319838 34.694920 -44.481525
v 16.415598 51.218292 17.556168
vn 0.8352 0.4687 -0.2877
vn -0.8352 -0.4687 0.2877
vn -0.5178 0.8464 -0.1245
vn 0.1851 0.2529 0.9496
vn 0.5178 -0.8464 0.1245
vn -0.1851 -0.2529 -0.9496
usemtl Material
s off
f 1//1 2//1 3//1 4//1
f 5//2 8//2 7//2 6//2
f 1//3 5//3 6//3 2//3
f 2//4 6//4 7//4 3//4
f 3//5 7//5 8//5 4//5
f 5//6 1//6 4//6 8//6
