# Blender v2.78 (sub 0) OBJ File: ''
# www.blender.org
mtllib anim_000151.mtl
o Cube
v 29.616993 -23.994911 41.810078
v 25.151569 -46.897198 -19.210831
v -39.302032 -36.256847 -18.487724
v -34.836594 -13.354559 42.533188
v 39.302044 36.256840 18.487713
v 34.836578 13.354557 -42.533195
v -29.617004 23.994915 -41.810066
v -25.151566 46.897198 19.210831
vn 0.1482 0.9223 -0.3570
vn -0.1482 -0.9223 0.3570
vn -0.9866 0.1629 0.0111
vn 0.0684 0.3506 0.9340
vn 0.9866 -0.1629 -0.0111
vn -0.0684 -0.3506 -0.9340
usemtl Material
s off
f 1//1 2//1 3//1 4//1
f 5//2 8//2 7//2 6//2
f 1//3 5//3 6//3 2//3
f 2//4 6//4 7//4 3//4
f 3//5 7//5 8//5 4//5
f 5//6 1//6 4//6 8//6
