# Blender v2.78 (sub 0) OBJ File: ''
# www.blender.org
mtllib anim_000192.mtl
o Cube
v 41.829483 -4.031376 37.882011
v 44.010365 -26.864811 -23.288931
v -15.924408 -51.847851 -16.100250
v -18.105274 -29.014408 45.070702
v 15.924417 51.847851 16.100237
v 18.105267 29.014400 -45.070702
v -41.829494 4.031376 -37.882004
v -44.010361 26.864811 23.288931
vn -0.3965 0.8553 -0.3334
vn 0.3965 -0.8553 0.3334
vn -0.9174 -0.3824 0.1100
vn -0.0334 0.3495 0.9363
vn 0.9174 0.3824 -0.1100
vn 0.0334 -0.3495 -0.9363
usemtl Material
s off
f 1//1 2//1 3//1 4//1
f 5//2 8//2 7//2 6//2
f 1//3 5//3 6//3 2//3
f 2//4 6//4 7//4 3//4
f 3//5 7//5 8//5 4//5
f 5//6 1//6 4//6 8//6
