# Blender v2.78 (sub 0) OBJ File: ''
# www.blender.org
mtllib anim_000183.mtl
o Cube
v 19.185680 44.339252 29.443928
v 29.712379 33.907375 -34.182877
v 43.745064 -28.645782 -21.605392
v 33.218361 -18.213886 42.021420
v -43.745064 28.645794 21.605379
v -33.218357 18.213877 -42.021423
v -19.185678 -44.339264 -29.443916
v -29.712381 -33.907372 34.182877
vn -0.9633 -0.2402 -0.1200
vn 0.9633 0.2402 0.1200
vn 0.2148 -0.9575 0.1925
vn -0.1611 0.1597 0.9739
vn -0.2148 0.9575 -0.1925
vn 0.1611 -0.1597 -0.9739
usemtl Material
s off
f 1//1 2//1 3//1 4//1
f 5//2 8//2 7//2 6//2
f 1//3 5//3 6//3 2//3
f 2//4 6//4 7//4 3//4
f 3//5 7//5 8//5 4//5
f 5//6 1//6 4//6 8//6
