# Blender v2.78 (sub 0) OBJ File: ''
# www.blender.org
mtllib anim_000180.mtl
o Cube
v 4.333689 48.382320 29.006456
v 13.633299 42.022469 -35.344727
v 49.483482 -11.577709 -24.866564
v 40.183861 -5.217842 39.484631
v -49.483486 11.577717 24.866549
v -40.183853 5.217834 -39.484634
v -4.333683 -48.382328 -29.006447
v -13.633301 -42.022469 35.344727
vn -0.8238 -0.5634 -0.0634
vn 0.8238 0.5634 0.0634
vn 0.5488 -0.8205 0.1604
vn -0.1423 0.0973 0.9850
vn -0.5488 0.8205 -0.1604
vn 0.1423 -0.0973 -0.9850
usemtl Material
s off
f 1//1 2//1 3//1 4//1
f 5//2 8//2 7//2 6//2
f 1//3 5//3 6//3 2//3
f 2//4 6//4 7//4 3//4
f 3//5 7//5 8//5 4//5
f 5//6 1//6 4//6 8//6
