# Blender v2.78 (sub 0) OBJ File: ''
# www.blender.org
mtllib anim_000113.mtl
o Cube
v -32.663525 32.666821 32.664616
v -32.662861 32.666748 -32.665359
v 32.667122 32.663158 -32.664688
v 32.666443 32.663231 32.665295
v -32.667133 -32.663158 32.664677
v -32.666431 -32.663231 -32.665302
v 32.663536 -32.666821 -32.664608
v 32.662857 -32.666748 32.665359
vn -0.0001 -1.0000 0.0000
vn 0.0001 1.0000 -0.0000
vn 1.0000 -0.0001 0.0000
vn -0.0000 0.0000 1.0000
vn -1.0000 0.0001 -0.0000
vn 0.0000 -0.0000 -1.0000
usemtl Material
s off
f 1//1 2//1 3//1 4//1
f 5//2 8//2 7//2 6//2
f 1//3 5//3 6//3 2//3
f 2//4 6//4 7//4 3//4
f 3//5 7//5 8//5 4//5
f 5//6 1//6 4//6 8//6
