# Blender v2.78 (sub 0) OBJ File: ''
# www.blender.org
mtllib anim_000163.mtl
o Cube
v -30.572763 -21.324932 42.562401
v -43.331127 -29.737272 -20.955019
v -32.593086 33.830425 -31.530895
v -19.834724 42.242752 31.986534
v 32.593082 -33.830441 31.530888
v 19.834724 -42.242744 -31.986542
v 30.572767 21.324945 -42.562393
v 43.331123 29.737268 20.955019
vn 0.9669 -0.1914 -0.1689
vn -0.9669 0.1914 0.1689
vn 0.1644 0.9730 -0.1619
vn 0.1953 0.1288 0.9723
vn -0.1644 -0.9730 0.1619
vn -0.1953 -0.1288 -0.9723
usemtl Material
s off
f 1//1 2//1 3//1 4//1
f 5//2 8//2 7//2 6//2
f 1//3 5//3 6//3 2//3
f 2//4 6//4 7//4 3//4
f 3//5 7//5 8//5 4//5
f 5//6 1//6 4//6 8//6
