# Blender v2.78 (sub 0) OBJ File: ''
# www.blender.org
mtllib anim_000082.mtl
o Cube
v -10.332261 10.332261 10.332260
v -10.332261 10.332261 -10.332261
v 10.332262 10.332261 -10.332259
v 10.332257 10.332261 10.332265
v -10.332266 -10.332261 10.332255
v -10.332254 -10.332261 -10.332267
v 10.332265 -10.332261 -10.332257
v 10.332260 -10.332261 10.332261
vn 0.0000 -1.0000 -0.0000
vn 0.0000 1.0000 -0.0000
vn 1.0000 0.0000 0.0000
vn -0.0000 -0.0000 1.0000
vn -1.0000 -0.0000 -0.0000
vn 0.0000 0.0000 -1.0000
usemtl Material
s off
f 1//1 2//1 3//1 4//1
f 5//2 8//2 7//2 6//2
f 1//3 5//3 6//3 2//3
f 2//4 6//4 7//4 3//4
f 3//5 7//5 8//5 4//5
f 5//6 1//6 4//6 8//6
