# Blender v2.78 (sub 0) OBJ File: ''
# www.blender.org
mtllib anim_000118.mtl
o Cube
v -32.624218 32.715912 32.654762
v -32.605839 32.713837 -32.675205
v 32.724068 32.613991 -32.656811
v 32.705673 32.616066 32.673164
v -32.724079 -32.613991 32.656799
v -32.705662 -32.616066 -32.673172
v 32.624229 -32.715912 -32.654755
v 32.605835 -32.713837 32.675205
vn -0.0015 -1.0000 0.0000
vn 0.0015 1.0000 -0.0000
vn 1.0000 -0.0015 0.0003
vn -0.0003 0.0000 1.0000
vn -1.0000 0.0015 -0.0003
vn 0.0003 -0.0000 -1.0000
usemtl Material
s off
f 1//1 2//1 3//1 4//1
f 5//2 8//2 7//2 6//2
f 1//3 5//3 6//3 2//3
f 2//4 6//4 7//4 3//4
f 3//5 7//5 8//5 4//5
f 5//6 1//6 4//6 8//6
