# Blender v2.78 (sub 0) OBJ File: ''
# www.blender.org
mtllib anim_000220.mtl
o Cube
v -9.044638 47.451466 29.454329
v -1.957243 44.088608 -35.402946
v 49.135666 4.102377 -27.746378
v 42.048256 7.465244 37.110901
v -49.135670 -4.102371 27.746365
v -42.048248 -7.465250 -37.110909
v 9.044645 -47.451469 -29.454319
v 1.957241 -44.088608 35.402946
vn -0.6137 -0.7891 -0.0261
vn 0.6137 0.7891 0.0261
vn 0.7821 -0.6121 0.1172
vn -0.1085 0.0515 0.9928
vn -0.7821 0.6121 -0.1172
vn 0.1085 -0.0515 -0.9928
usemtl Material
s off
f 1//1 2//1 3//1 4//1
f 5//2 8//2 7//2 6//2
f 1//3 5//3 6//3 2//3
f 2//4 6//4 7//4 3//4
f 3//5 7//5 8//5 4//5
f 5//6 1//6 4//6 8//6
