# Blender v2.78 (sub 0) OBJ File: ''
# www.blender.org
mtllib anim_000201.mtl
o Cube
v 8.702133 -34.305592 44.140728
v -1.365376 -53.821968 -17.387821
v -50.529568 -11.151764 -22.878059
v -40.462044 8.364605 38.650497
v 50.529572 11.151753 22.878048
v 40.462036 -8.364601 -38.650505
v -8.702141 34.305603 -44.140717
v 1.365377 53.821968 17.387821
vn 0.6402 0.6958 -0.3255
vn -0.6402 -0.6958 0.3255
vn -0.7526 0.6531 -0.0840
vn 0.1541 0.2987 0.9418
vn 0.7526 -0.6531 0.0840
vn -0.1541 -0.2987 -0.9418
usemtl Material
s off
f 1//1 2//1 3//1 4//1
f 5//2 8//2 7//2 6//2
f 1//3 5//3 6//3 2//3
f 2//4 6//4 7//4 3//4
f 3//5 7//5 8//5 4//5
f 5//6 1//6 4//6 8//6
