# Blender v2.78 (sub 0) OBJ File: ''
# www.blender.org
mtllib anim_000168.mtl
o Cube
v -41.458733 11.482409 36.746864
v -47.892323 10.433901 -28.257099
v 7.618549 44.346363 -34.298134
v 14.052128 45.394863 30.705839
v -7.618561 -44.346367 34.298122
v -14.052118 -45.394859 -30.705847
v 41.458744 -11.482403 -36.746861
v 47.892319 -10.433903 28.257099
vn 0.5180 -0.8546 -0.0375
vn -0.5180 0.8546 0.0375
vn 0.8497 0.5191 -0.0925
vn 0.0985 0.0160 0.9950
vn -0.8497 -0.5191 0.0925
vn -0.0985 -0.0160 -0.9950
usemtl Material
s off
f 1//1 2//1 3//1 4//1
f 5//2 8//2 7//2 6//2
f 1//3 5//3 6//3 2//3
f 2//4 6//4 7//4 3//4
f 3//5 7//5 8//5 4//5
f 5//6 1//6 4//6 8//6
