# Blender v2.78 (sub 0) OBJ File: ''
# www.blender.org
mtllib anim_000089.mtl
o Cube
v -12.071498 12.071498 12.071497
v -12.071498 12.071498 -12.071498
v 12.071500 12.071498 -12.071496
v 12.071493 12.071498 12.071503
v -12.071504 -12.071498 12.071491
v -12.071490 -12.071498 -12.071506
v 12.071503 -12.071498 -12.071493
v 12.071497 -12.071498 12.071498
vn 0.0000 -1.0000 -0.0000
vn 0.0000 1.0000 0.0000
vn 1.0000 0.0000 0.0000
vn -0.0000 -0.0000 1.0000
vn -1.0000 -0.0000 -0.0000
vn 0.0000 0.0000 -1.0000
usemtl Material
s off
f 1//1 2//1 3//1 4//1
f 5//2 8//2 7//2 6//2
f 1//3 5//3 6//3 2//3
f 2//4 6//4 7//4 3//4
f 3//5 7//5 8//5 4//5
f 5//6 1//6 4//6 8//6
