# Blender v2.78 (sub 0) OBJ File: ''
# www.blender.org
mtllib anim_000142.mtl
o Cube
v 43.171013 4.382010 36.305183
v 47.587688 -17.531097 -25.081415
v -5.851711 -53.976158 -15.916542
v -10.268375 -32.063042 45.470062
v 5.851723 53.976162 15.916529
v 10.268368 32.063034 -45.470070
v -43.171021 -4.382011 -36.305172
v -47.587685 17.531097 25.081415
vn -0.5712 0.7591 -0.3121
vn 0.5712 -0.7591 0.3121
vn -0.8180 -0.5579 0.1403
vn -0.0676 0.3354 0.9396
vn 0.8180 0.5579 -0.1403
vn 0.0676 -0.3354 -0.9396
usemtl Material
s off
f 1//1 2//1 3//1 4//1
f 5//2 8//2 7//2 6//2
f 1//3 5//3 6//3 2//3
f 2//4 6//4 7//4 3//4
f 3//5 7//5 8//5 4//5
f 5//6 1//6 4//6 8//6
