# Blender v2.78 (sub 0) OBJ File: ''
# www.blender.org
mtllib anim_000148.mtl
o Cube
v 38.131847 -13.221436 39.650482
v 37.538914 -36.537292 -21.374313
v -26.797630 -46.917053 -16.783381
v -26.204681 -23.601192 44.241421
v 26.797642 46.917049 16.783369
v 26.204670 23.601187 -44.241425
v -38.131859 13.221436 -39.650471
v -37.538910 36.537292 21.374313
vn -0.1735 0.9205 -0.3500
vn 0.1735 -0.9205 0.3500
vn -0.9848 -0.1589 0.0703
vn 0.0091 0.3569 0.9341
vn 0.9848 0.1589 -0.0703
vn -0.0091 -0.3569 -0.9341
usemtl Material
s off
f 1//1 2//1 3//1 4//1
f 5//2 8//2 7//2 6//2
f 1//3 5//3 6//3 2//3
f 2//4 6//4 7//4 3//4
f 3//5 7//5 8//5 4//5
f 5//6 1//6 4//6 8//6
