# Blender v2.78 (sub 0) OBJ File: ''
# www.blender.org
mtllib anim_000007.mtl
o Cube
v 21.552073 -21.552073 -21.552071
v 21.552073 -21.552073 21.552073
v -21.552074 -21.552073 21.552069
v -21.552065 -21.552073 -21.552080
v 21.552082 21.552073 -21.552061
v 21.552059 21.552073 21.552086
v -21.552080 21.552073 21.552065
v -21.552071 21.552073 -21.552073
vn 0.0000 -1.0000 -0.0000
vn 0.0000 1.0000 -0.0000
vn 1.0000 0.0000 0.0000
vn -0.0000 -0.0000 1.0000
vn -1.0000 -0.0000 -0.0000
vn 0.0000 0.0000 -1.0000
usemtl Material
s off
f 1//1 2//1 3//1 4//1
f 5//2 8//2 7//2 6//2
f 1//3 5//3 6//3 2//3
f 2//4 6//4 7//4 3//4
f 3//5 7//5 8//5 4//5
f 5//6 1//6 4//6 8//6
