# Blender v2.78 (sub 0) OBJ File: ''
# www.blender.org
mtllib anim_000120.mtl
o Cube
v -32.527161 32.836483 32.630562
v -32.465179 32.829365 -32.699383
v 32.863911 32.492626 -32.637356
v 32.801914 32.499744 32.692596
v -32.863922 -32.492626 32.637344
v -32.801903 -32.499744 -32.692604
v 32.527172 -32.836483 -32.630554
v 32.465176 -32.829365 32.699383
vn -0.0052 -1.0000 0.0001
vn 0.0052 1.0000 -0.0001
vn 1.0000 -0.0052 0.0009
vn -0.0009 0.0001 1.0000
vn -1.0000 0.0052 -0.0009
vn 0.0009 -0.0001 -1.0000
usemtl Material
s off
f 1//1 2//1 3//1 4//1
f 5//2 8//2 7//2 6//2
f 1//3 5//3 6//3 2//3
f 2//4 6//4 7//4 3//4
f 3//5 7//5 8//5 4//5
f 5//6 1//6 4//6 8//6
