# Blender v2.78 (sub 0) OBJ File: ''
# www.blender.org
mtllib anim_000131.mtl
o Cube
v -28.078417 37.543175 31.672022
v -26.216387 37.184673 -33.630428
v 38.284569 26.984627 -31.735247
v 36.422523 27.343128 33.567207
v -38.284580 -26.984625 31.735235
v -36.422512 -27.343130 -33.567215
v 28.078428 -37.543175 -31.672014
v 26.216383 -37.184673 33.630428
vn -0.1562 -0.9877 0.0010
vn 0.1562 0.9877 -0.0010
vn 0.9873 -0.1561 0.0290
vn -0.0285 0.0055 0.9996
vn -0.9873 0.1561 -0.0290
vn 0.0285 -0.0055 -0.9996
usemtl Material
s off
f 1//1 2//1 3//1 4//1
f 5//2 8//2 7//2 6//2
f 1//3 5//3 6//3 2//3
f 2//4 6//4 7//4 3//4
f 3//5 7//5 8//5 4//5
f 5//6 1//6 4//6 8//6
