# Blender v2.78 (sub 0) OBJ File: ''
# www.blender.org
mtllib anim_000150.mtl
o Cube
v 33.359356 -20.133766 41.021816
v 30.384396 -43.346046 -19.972822
v -34.860550 -40.883717 -17.727619
v -31.885574 -17.671434 43.267029
v 34.860561 40.883713 17.727608
v 31.885561 17.671432 -43.267033
v -33.359367 20.133770 -41.021805
v -30.384392 43.346046 19.972822
vn 0.0230 0.9340 -0.3566
vn -0.0230 -0.9340 0.3566
vn -0.9987 0.0377 0.0344
vn 0.0455 0.3553 0.9336
vn 0.9987 -0.0377 -0.0344
vn -0.0455 -0.3553 -0.9336
usemtl Material
s off
f 1//1 2//1 3//1 4//1
f 5//2 8//2 7//2 6//2
f 1//3 5//3 6//3 2//3
f 2//4 6//4 7//4 3//4
f 3//5 7//5 8//5 4//5
f 5//6 1//6 4//6 8//6
