# Blender v2.78 (sub 0) OBJ File: ''
# www.blender.org
mtllib anim_000224.mtl
o Cube
v 25.768095 40.440937 30.025658
v 36.328773 27.895245 -33.212650
v 38.660477 -36.069618 -20.133419
v 28.099798 -23.523905 43.104893
v -38.660477 36.069630 20.133404
v -28.099796 23.523893 -43.104900
v -25.768097 -40.440948 -30.025642
v -36.328773 -27.895243 33.212650
vn -0.9862 -0.0669 -0.1514
vn 0.9862 0.0669 0.1514
vn 0.0357 -0.9791 0.2002
vn -0.1617 0.1920 0.9680
vn -0.0357 0.9791 -0.2002
vn 0.1617 -0.1920 -0.9680
usemtl Material
s off
f 1//1 2//1 3//1 4//1
f 5//2 8//2 7//2 6//2
f 1//3 5//3 6//3 2//3
f 2//4 6//4 7//4 3//4
f 3//5 7//5 8//5 4//5
f 5//6 1//6 4//6 8//6
