# Blender v2.78 (sub 0) OBJ File: ''
# www.blender.org
mtllib anim_000236.mtl
o Cube
v 21.894279 -29.551191 42.992699
v 14.936899 -51.459900 -18.159645
v -45.557983 -26.870014 -20.086740
v -38.600590 -4.961311 41.065613
v 45.557995 26.870007 20.086729
v 38.600582 4.961311 -41.065620
v -21.894287 29.551199 -42.992691
v -14.936897 51.459896 18.159645
vn 0.3622 0.8636 -0.3506
vn -0.3622 -0.8636 0.3506
vn -0.9260 0.3764 -0.0295
vn 0.1065 0.3354 0.9361
vn 0.9260 -0.3764 0.0295
vn -0.1065 -0.3354 -0.9361
usemtl Material
s off
f 1//1 2//1 3//1 4//1
f 5//2 8//2 7//2 6//2
f 1//3 5//3 6//3 2//3
f 2//4 6//4 7//4 3//4
f 3//5 7//5 8//5 4//5
f 5//6 1//6 4//6 8//6
