# Blender v2.78 (sub 0) OBJ File: ''
# www.blender.org
mtllib anim_000182.mtl
o Cube
v 13.678667 46.516388 29.156891
v 23.914513 37.693871 -34.760220
v 46.690811 -22.362381 -22.823158
v 36.454956 -13.539851 41.093956
v -46.690811 22.362392 22.823145
v -36.454952 13.539842 -41.093960
v -13.678665 -46.516396 -29.156879
v -23.914515 -37.693871 34.760220
vn -0.9241 -0.3697 -0.0969
vn 0.9241 0.3697 0.0969
vn 0.3486 -0.9193 0.1827
vn -0.1567 0.1350 0.9784
vn -0.3486 0.9193 -0.1827
vn 0.1567 -0.1350 -0.9784
usemtl Material
s off
f 1//1 2//1 3//1 4//1
f 5//2 8//2 7//2 6//2
f 1//3 5//3 6//3 2//3
f 2//4 6//4 7//4 3//4
f 3//5 7//5 8//5 4//5
f 5//6 1//6 4//6 8//6
