# Blender v2.78 (sub 0) OBJ File: ''
# www.blender.org
mtllib anim_000058.mtl
o Cube
v -25.612402 25.612402 25.612400
v -25.612402 25.612402 -25.612402
v 25.612406 25.612402 -25.612398
v 25.612392 25.612402 25.612411
v -25.612413 -25.612402 25.612389
v -25.612385 -25.612402 -25.612417
v 25.612411 -25.612402 -25.612392
v 25.612400 -25.612402 25.612402
vn 0.0000 -1.0000 -0.0000
vn 0.0000 1.0000 0.0000
vn 1.0000 0.0000 0.0000
vn -0.0000 -0.0000 1.0000
vn -1.0000 -0.0000 -0.0000
vn 0.0000 0.0000 -1.0000
usemtl Material
s off
f 1//1 2//1 3//1 4//1
f 5//2 8//2 7//2 6//2
f 1//3 5//3 6//3 2//3
f 2//4 6//4 7//4 3//4
f 3//5 7//5 8//5 4//5
f 5//6 1//6 4//6 8//6
