# Blender v2.78 (sub 0) OBJ File: ''
# www.blender.org
mtllib anim_000087.mtl
o Cube
v -11.498878 11.498878 11.498877
v -11.498878 11.498878 -11.498878
v 11.498878 11.498878 -11.498876
v 11.498874 11.498878 11.498881
v -11.498883 -11.498878 11.498872
v -11.498870 -11.498878 -11.498884
v 11.498881 -11.498878 -11.498874
v 11.498877 -11.498878 11.498878
vn 0.0000 -1.0000 -0.0000
vn 0.0000 1.0000 0.0000
vn 1.0000 -0.0000 0.0000
vn -0.0000 -0.0000 1.0000
vn -1.0000 -0.0000 -0.0000
vn 0.0000 0.0000 -1.0000
usemtl Material
s off
f 1//1 2//1 3//1 4//1
f 5//2 8//2 7//2 6//2
f 1//3 5//3 6//3 2//3
f 2//4 6//4 7//4 3//4
f 3//5 7//5 8//5 4//5
f 5//6 1//6 4//6 8//6
