# Blender v2.78 (sub 0) OBJ File: ''
# www.blender.org
mtllib anim_000029.mtl
o Cube
v -12.071665 12.071665 12.071664
v -12.071665 12.071665 -12.071665
v 12.071667 12.071665 -12.071663
v 12.071660 12.071665 12.071670
v -12.071671 -12.071665 12.071658
v -12.071657 -12.071665 -12.071672
v 12.071670 -12.071665 -12.071660
v 12.071664 -12.071665 12.071665
vn 0.0000 -1.0000 0.0000
vn 0.0000 1.0000 0.0000
vn 1.0000 0.0000 0.0000
vn -0.0000 -0.0000 1.0000
vn -1.0000 -0.0000 -0.0000
vn 0.0000 0.0000 -1.0000
usemtl Material
s off
f 1//1 2//1 3//1 4//1
f 5//2 8//2 7//2 6//2
f 1//3 5//3 6//3 2//3
f 2//4 6//4 7//4 3//4
f 3//5 7//5 8//5 4//5
f 5//6 1//6 4//6 8//6
