# Blender v2.78 (sub 0) OBJ File: ''
# www.blender.org
mtllib anim_000228.mtl
o Cube
v 41.386871 18.793959 33.688549
v 49.027260 -0.586496 -28.230980
v 11.639172 -52.856468 -16.484173
v 3.998791 -33.475998 45.435360
v -11.639162 52.856476 16.484161
v -3.998795 33.475983 -45.435364
v -41.386883 -18.793966 -33.688538
v -49.027260 0.586496 28.230980
vn -0.8117 0.5214 -0.2633
vn 0.8117 -0.5214 0.2633
vn -0.5723 -0.8001 0.1798
vn -0.1170 0.2967 0.9478
vn 0.5723 0.8001 -0.1798
vn 0.1170 -0.2967 -0.9478
usemtl Material
s off
f 1//1 2//1 3//1 4//1
f 5//2 8//2 7//2 6//2
f 1//3 5//3 6//3 2//3
f 2//4 6//4 7//4 3//4
f 3//5 7//5 8//5 4//5
f 5//6 1//6 4//6 8//6
