# Blender v2.78 (sub 0) OBJ File: ''
# www.blender.org
mtllib anim_000170.mtl
o Cube
v -38.994396 21.617718 34.829807
v -42.608566 21.479206 -30.399969
v 19.703636 40.792183 -33.893490
v 23.317791 40.930691 31.336298
v -19.703648 -40.792191 33.893478
v -23.317783 -40.930687 -31.336308
v 38.994408 -21.617714 -34.829803
v 42.608566 -21.479208 30.399969
vn 0.2953 -0.9553 -0.0143
vn -0.2953 0.9553 0.0143
vn 0.9538 0.2956 -0.0535
vn 0.0553 0.0021 0.9985
vn -0.9538 -0.2956 0.0535
vn -0.0553 -0.0021 -0.9985
usemtl Material
s off
f 1//1 2//1 3//1 4//1
f 5//2 8//2 7//2 6//2
f 1//3 5//3 6//3 2//3
f 2//4 6//4 7//4 3//4
f 3//5 7//5 8//5 4//5
f 5//6 1//6 4//6 8//6
