# Blender v2.78 (sub 0) OBJ File: ''
# www.blender.org
mtllib anim_000014.mtl
o Cube
v 20.357248 -20.357248 -20.357246
v 20.357248 -20.357248 20.357248
v -20.357250 -20.357248 20.357244
v -20.357241 -20.357248 -20.357256
v 20.357258 20.357248 -20.357237
v 20.357235 20.357248 20.357260
v -20.357256 20.357248 20.357241
v -20.357246 20.357248 -20.357248
vn 0.0000 -1.0000 -0.0000
vn 0.0000 1.0000 -0.0000
vn 1.0000 0.0000 0.0000
vn -0.0000 -0.0000 1.0000
vn -1.0000 -0.0000 -0.0000
vn 0.0000 0.0000 -1.0000
usemtl Material
s off
f 1//1 2//1 3//1 4//1
f 5//2 8//2 7//2 6//2
f 1//3 5//3 6//3 2//3
f 2//4 6//4 7//4 3//4
f 3//5 7//5 8//5 4//5
f 5//6 1//6 4//6 8//6
