# Blender v2.78 (sub 0) OBJ File: ''
# www.blender.org
mtllib anim_000177.mtl
o Cube
v -6.135204 48.014919 29.290462
v 1.520649 44.053272 -35.468315
v 49.646851 0.668261 -27.124680
v 41.990982 4.629919 37.634106
v -49.646858 -0.668253 27.124666
v -41.990974 -4.629925 -37.634109
v 6.135212 -48.014927 -29.290453
v -1.520651 -44.053268 35.468315
vn -0.6660 -0.7452 -0.0332
vn 0.6660 0.7452 0.0332
vn 0.7367 -0.6641 0.1277
vn -0.1172 0.0606 0.9913
vn -0.7367 0.6641 -0.1277
vn 0.1172 -0.0606 -0.9913
usemtl Material
s off
f 1//1 2//1 3//1 4//1
f 5//2 8//2 7//2 6//2
f 1//3 5//3 6//3 2//3
f 2//4 6//4 7//4 3//4
f 3//5 7//5 8//5 4//5
f 5//6 1//6 4//6 8//6
