# Blender v2.78 (sub 0) OBJ File: ''
# www.blender.org
mtllib anim_000084.mtl
o Cube
v -10.750395 10.750395 10.750394
v -10.750395 10.750395 -10.750395
v 10.750396 10.750395 -10.750393
v 10.750391 10.750395 10.750399
v -10.750400 -10.750395 10.750389
v -10.750388 -10.750395 -10.750401
v 10.750399 -10.750395 -10.750391
v 10.750394 -10.750395 10.750395
vn 0.0000 -1.0000 0.0000
vn 0.0000 1.0000 0.0000
vn 1.0000 0.0000 0.0000
vn -0.0000 -0.0000 1.0000
vn -1.0000 -0.0000 -0.0000
vn 0.0000 0.0000 -1.0000
usemtl Material
s off
f 1//1 2//1 3//1 4//1
f 5//2 8//2 7//2 6//2
f 1//3 5//3 6//3 2//3
f 2//4 6//4 7//4 3//4
f 3//5 7//5 8//5 4//5
f 5//6 1//6 4//6 8//6
