# Blender v2.78 (sub 0) OBJ File: ''
# www.blender.org
mtllib anim_000216.mtl
o Cube
v -30.439438 35.227966 32.147095
v -29.488487 35.082760 -33.175800
v 35.628170 29.895599 -32.216316
v 34.677204 30.040808 33.106583
v -35.628181 -29.895599 32.216305
v -34.677193 -30.040808 -33.106590
v 30.439449 -35.227966 -32.147083
v 29.488483 -35.082760 33.175800
vn -0.0794 -0.9968 0.0011
vn 0.0794 0.9968 -0.0011
vn 0.9967 -0.0794 0.0147
vn -0.0146 0.0022 0.9999
vn -0.9967 0.0794 -0.0147
vn 0.0146 -0.0022 -0.9999
usemtl Material
s off
f 1//1 2//1 3//1 4//1
f 5//2 8//2 7//2 6//2
f 1//3 5//3 6//3 2//3
f 2//4 6//4 7//4 3//4
f 3//5 7//5 8//5 4//5
f 5//6 1//6 4//6 8//6
