# Blender v2.78 (sub 0) OBJ File: ''
# www.blender.org
mtllib anim_000074.mtl
o Cube
v -22.152983 22.152983 22.152981
v -22.152983 22.152983 -22.152983
v 22.152985 22.152983 -22.152979
v 22.152975 22.152983 22.152990
v -22.152994 -22.152983 22.152971
v -22.152967 -22.152983 -22.152996
v 22.152990 -22.152983 -22.152975
v 22.152981 -22.152983 22.152983
vn 0.0000 -1.0000 -0.0000
vn 0.0000 1.0000 0.0000
vn 1.0000 0.0000 0.0000
vn -0.0000 -0.0000 1.0000
vn -1.0000 -0.0000 -0.0000
vn 0.0000 0.0000 -1.0000
usemtl Material
s off
f 1//1 2//1 3//1 4//1
f 5//2 8//2 7//2 6//2
f 1//3 5//3 6//3 2//3
f 2//4 6//4 7//4 3//4
f 3//5 7//5 8//5 4//5
f 5//6 1//6 4//6 8//6
