# Blender v2.78 (sub 0) OBJ File: ''
# www.blender.org
mtllib anim_000169.mtl
o Cube
v -40.113018 18.273596 35.468658
v -44.702839 17.906399 -29.698851
v 15.733887 42.321552 -34.093037
v 20.323692 42.688744 31.074476
v -15.733900 -42.321556 34.093025
v -20.323685 -42.688740 -31.074484
v 40.113029 -18.273590 -35.468651
v 44.702835 -17.906399 29.698851
vn 0.3732 -0.9275 -0.0211
vn -0.3732 0.9275 0.0211
vn 0.9251 0.3737 -0.0673
vn 0.0703 0.0056 0.9975
vn -0.9251 -0.3737 0.0673
vn -0.0703 -0.0056 -0.9975
usemtl Material
s off
f 1//1 2//1 3//1 4//1
f 5//2 8//2 7//2 6//2
f 1//3 5//3 6//3 2//3
f 2//4 6//4 7//4 3//4
f 3//5 7//5 8//5 4//5
f 5//6 1//6 4//6 8//6
