# Blender v2.78 (sub 0) OBJ File: ''
# www.blender.org
mtllib anim_000167.mtl
o Cube
v -41.709606 7.424786 37.499138
v -49.162666 5.839642 -27.384951
v 2.737719 44.910393 -34.301109
v 10.190763 46.495529 30.582987
v -2.737726 -44.910400 34.301102
v -10.190758 -46.495522 -30.582996
v 41.709618 -7.424778 -37.499138
v 49.162666 -5.839643 27.384951
vn 0.5965 -0.8011 -0.0490
vn -0.5965 0.8011 0.0490
vn 0.7944 0.5981 -0.1059
vn 0.1141 0.0243 0.9932
vn -0.7944 -0.5981 0.1059
vn -0.1141 -0.0243 -0.9932
usemtl Material
s off
f 1//1 2//1 3//1 4//1
f 5//2 8//2 7//2 6//2
f 1//3 5//3 6//3 2//3
f 2//4 6//4 7//4 3//4
f 3//5 7//5 8//5 4//5
f 5//6 1//6 4//6 8//6
