# Blender v2.78 (sub 0) OBJ File: ''
# www.blender.org
mtllib anim_000227.mtl
o Cube
v 39.580307 23.569078 32.846653
v 48.108223 5.312456 -29.298151
v 17.504839 -51.066544 -16.934967
v 8.976931 -32.809906 45.209839
v -17.504833 51.066551 16.934954
v -8.976934 32.809891 -45.209846
v -39.580315 -23.569086 -32.846642
v -48.108219 -5.312452 29.298151
vn -0.8738 0.4209 -0.2436
vn 0.8738 -0.4209 0.2436
vn -0.4684 -0.8630 0.1892
vn -0.1305 0.2795 0.9512
vn 0.4684 0.8630 -0.1892
vn 0.1305 -0.2795 -0.9512
usemtl Material
s off
f 1//1 2//1 3//1 4//1
f 5//2 8//2 7//2 6//2
f 1//3 5//3 6//3 2//3
f 2//4 6//4 7//4 3//4
f 3//5 7//5 8//5 4//5
f 5//6 1//6 4//6 8//6
