# Blender v2.78 (sub 0) OBJ File: ''
# www.blender.org
mtllib anim_000076.mtl
o Cube
v -16.055922 16.055922 16.055920
v -16.055922 16.055922 -16.055922
v 16.055923 16.055922 -16.055918
v 16.055916 16.055922 16.055927
v -16.055929 -16.055922 16.055912
v -16.055910 -16.055922 -16.055931
v 16.055927 -16.055922 -16.055916
v 16.055920 -16.055922 16.055922
vn 0.0000 -1.0000 0.0000
vn 0.0000 1.0000 -0.0000
vn 1.0000 0.0000 0.0000
vn -0.0000 -0.0000 1.0000
vn -1.0000 -0.0000 -0.0000
vn 0.0000 0.0000 -1.0000
usemtl Material
s off
f 1//1 2//1 3//1 4//1
f 5//2 8//2 7//2 6//2
f 1//3 5//3 6//3 2//3
f 2//4 6//4 7//4 3//4
f 3//5 7//5 8//5 4//5
f 5//6 1//6 4//6 8//6
