# Blender v2.78 (sub 0) OBJ File: ''
# www.blender.org
mtllib anim_000241.mtl
o Cube
v -4.873505 -34.623638 44.479851
v -17.034264 -51.006870 -17.582308
v -50.126648 4.717759 -25.808268
v -37.965878 21.100983 36.253902
v 50.126648 -4.717772 25.808256
v 37.965870 -21.100975 -36.253914
v 4.873501 34.623650 -44.479843
v 17.034266 51.006870 17.582308
vn 0.8419 0.4578 -0.2858
vn -0.8419 -0.4578 0.2858
vn -0.5065 0.8530 -0.1259
vn 0.1861 0.2508 0.9500
vn 0.5065 -0.8530 0.1259
vn -0.1861 -0.2508 -0.9500
usemtl Material
s off
f 1//1 2//1 3//1 4//1
f 5//2 8//2 7//2 6//2
f 1//3 5//3 6//3 2//3
f 2//4 6//4 7//4 3//4
f 3//5 7//5 8//5 4//5
f 5//6 1//6 4//6 8//6
