# Blender v2.78 (sub 0) OBJ File: ''
# www.blender.org
mtllib anim_000060.mtl
o Cube
v -30.693167 30.693167 30.693165
v -30.693167 30.693167 -30.693167
v 30.693171 30.693167 -30.693161
v 30.693155 30.693167 30.693178
v -30.693182 -30.693167 30.693150
v -30.693146 -30.693167 -30.693186
v 30.693178 -30.693167 -30.693155
v 30.693165 -30.693167 30.693167
vn 0.0000 -1.0000 -0.0000
vn 0.0000 1.0000 0.0000
vn 1.0000 -0.0000 0.0000
vn -0.0000 -0.0000 1.0000
vn -1.0000 -0.0000 -0.0000
vn 0.0000 0.0000 -1.0000
usemtl Material
s off
f 1//1 2//1 3//1 4//1
f 5//2 8//2 7//2 6//2
f 1//3 5//3 6//3 2//3
f 2//4 6//4 7//4 3//4
f 3//5 7//5 8//5 4//5
f 5//6 1//6 4//6 8//6
