# Blender v2.78 (sub 0) OBJ File: ''
# www.blender.org
mtllib anim_000090.mtl
o Cube
v -12.386340 12.386340 12.386339
v -12.386340 12.386340 -12.386340
v 12.386342 12.386340 -12.386338
v 12.386335 12.386340 12.386345
v -12.386346 -12.386340 12.386333
v -12.386332 -12.386340 -12.386348
v 12.386345 -12.386340 -12.386335
v 12.386339 -12.386340 12.386340
vn 0.0000 -1.0000 -0.0000
vn 0.0000 1.0000 0.0000
vn 1.0000 0.0000 0.0000
vn -0.0000 -0.0000 1.0000
vn -1.0000 -0.0000 -0.0000
vn 0.0000 0.0000 -1.0000
usemtl Material
s off
f 1//1 2//1 3//1 4//1
f 5//2 8//2 7//2 6//2
f 1//3 5//3 6//3 2//3
f 2//4 6//4 7//4 3//4
f 3//5 7//5 8//5 4//5
f 5//6 1//6 4//6 8//6
