# Blender v2.78 (sub 0) OBJ File: ''
# www.blender.org
mtllib anim_000071.mtl
o Cube
v -29.573076 29.573076 29.573074
v -29.573076 29.573076 -29.573076
v 29.573080 29.573076 -29.573071
v 29.573065 29.573076 29.573088
v -29.573090 -29.573076 29.573061
v -29.573057 -29.573076 -29.573093
v 29.573088 -29.573076 -29.573065
v 29.573074 -29.573076 29.573076
vn 0.0000 -1.0000 -0.0000
vn 0.0000 1.0000 0.0000
vn 1.0000 0.0000 0.0000
vn -0.0000 -0.0000 1.0000
vn -1.0000 -0.0000 -0.0000
vn 0.0000 0.0000 -1.0000
usemtl Material
s off
f 1//1 2//1 3//1 4//1
f 5//2 8//2 7//2 6//2
f 1//3 5//3 6//3 2//3
f 2//4 6//4 7//4 3//4
f 3//5 7//5 8//5 4//5
f 5//6 1//6 4//6 8//6
