# Blender v2.78 (sub 0) OBJ File: ''
# www.blender.org
mtllib anim_000093.mtl
o Cube
v -13.621500 13.621500 13.621499
v -13.621500 13.621500 -13.621500
v 13.621502 13.621500 -13.621497
v 13.621495 13.621500 13.621505
v -13.621507 -13.621500 13.621492
v -13.621491 -13.621500 -13.621509
v 13.621505 -13.621500 -13.621495
v 13.621499 -13.621500 13.621500
vn 0.0000 -1.0000 0.0000
vn 0.0000 1.0000 0.0000
vn 1.0000 0.0000 0.0000
vn -0.0000 -0.0000 1.0000
vn -1.0000 -0.0000 -0.0000
vn 0.0000 0.0000 -1.0000
usemtl Material
s off
f 1//1 2//1 3//1 4//1
f 5//2 8//2 7//2 6//2
f 1//3 5//3 6//3 2//3
f 2//4 6//4 7//4 3//4
f 3//5 7//5 8//5 4//5
f 5//6 1//6 4//6 8//6
