# Blender v2.78 (sub 0) OBJ File: ''
# www.blender.org
mtllib anim_000149.mtl
o Cube
v 35.796349 -16.977745 40.390369
v 33.947296 -40.297745 -20.607700
v -31.194139 -43.939583 -17.240738
v -29.345070 -20.619579 43.757339
v 31.194151 43.939579 17.240726
v 29.345058 20.619576 -43.757343
v -35.796360 16.977747 -40.390358
v -33.947292 40.297745 20.607700
vn -0.0704 0.9325 -0.3543
vn 0.0704 -0.9325 0.3543
vn -0.9971 -0.0557 0.0515
vn 0.0283 0.3570 0.9337
vn 0.9971 0.0557 -0.0515
vn -0.0283 -0.3570 -0.9337
usemtl Material
s off
f 1//1 2//1 3//1 4//1
f 5//2 8//2 7//2 6//2
f 1//3 5//3 6//3 2//3
f 2//4 6//4 7//4 3//4
f 3//5 7//5 8//5 4//5
f 5//6 1//6 4//6 8//6
