# Blender v2.78 (sub 0) OBJ File: ''
# www.blender.org
mtllib anim_000095.mtl
o Cube
v -15.530907 15.530907 15.530906
v -15.530907 15.530907 -15.530907
v 15.530909 15.530907 -15.530904
v 15.530901 15.530907 15.530912
v -15.530914 -15.530907 15.530898
v -15.530896 -15.530907 -15.530916
v 15.530912 -15.530907 -15.530901
v 15.530906 -15.530907 15.530907
vn 0.0000 -1.0000 -0.0000
vn 0.0000 1.0000 0.0000
vn 1.0000 0.0000 0.0000
vn -0.0000 -0.0000 1.0000
vn -1.0000 -0.0000 -0.0000
vn 0.0000 0.0000 -1.0000
usemtl Material
s off
f 1//1 2//1 3//1 4//1
f 5//2 8//2 7//2 6//2
f 1//3 5//3 6//3 2//3
f 2//4 6//4 7//4 3//4
f 3//5 7//5 8//5 4//5
f 5//6 1//6 4//6 8//6
