# Blender v2.78 (sub 0) OBJ File: ''
# www.blender.org
mtllib anim_000135.mtl
o Cube
v 36.378159 29.390148 31.841057
v 45.839592 12.737725 -30.618401
v 24.713303 -47.717354 -17.700596
v 15.251875 -31.064911 44.758869
v -24.713299 47.717365 17.700584
v -15.251877 31.064903 -44.758873
v -36.378166 -29.390160 -31.841045
v -45.839592 -12.737725 30.618401
vn -0.9351 0.2805 -0.2164
vn 0.9351 -0.2805 0.2164
vn -0.3234 -0.9254 0.1977
vn -0.1448 0.2549 0.9561
vn 0.3234 0.9254 -0.1977
vn 0.1448 -0.2549 -0.9561
usemtl Material
s off
f 1//1 2//1 3//1 4//1
f 5//2 8//2 7//2 6//2
f 1//3 5//3 6//3 2//3
f 2//4 6//4 7//4 3//4
f 3//5 7//5 8//5 4//5
f 5//6 1//6 4//6 8//6
