# Blender v2.78 (sub 0) OBJ File: ''
# www.blender.org
mtllib anim_000199.mtl
o Cube
v 17.838039 -31.549709 43.444504
v 9.794478 -52.801582 -17.806332
v -47.734074 -22.001207 -20.938229
v -39.690506 -0.749336 40.312614
v 47.734085 22.001198 20.938217
v 39.690495 0.749338 -40.312626
v -17.838047 31.549717 -43.444492
v -9.794478 52.801582 17.806332
vn 0.4576 0.8197 -0.3445
vn -0.4576 -0.8197 0.3445
vn -0.8806 0.4715 -0.0479
vn 0.1231 0.3253 0.9376
vn 0.8806 -0.4715 0.0479
vn -0.1231 -0.3253 -0.9376
usemtl Material
s off
f 1//1 2//1 3//1 4//1
f 5//2 8//2 7//2 6//2
f 1//3 5//3 6//3 2//3
f 2//4 6//4 7//4 3//4
f 3//5 7//5 8//5 4//5
f 5//6 1//6 4//6 8//6
