# Blender v2.78 (sub 0) OBJ File: ''
# www.blender.org
mtllib anim_000098.mtl
o Cube
v -20.991442 20.991442 20.991440
v -20.991442 20.991442 -20.991442
v 20.991444 20.991442 -20.991438
v 20.991434 20.991442 20.991449
v -20.991451 -20.991442 20.991430
v -20.991428 -20.991442 -20.991455
v 20.991449 -20.991442 -20.991434
v 20.991440 -20.991442 20.991442
vn 0.0000 -1.0000 -0.0000
vn 0.0000 1.0000 -0.0000
vn 1.0000 0.0000 0.0000
vn -0.0000 -0.0000 1.0000
vn -1.0000 -0.0000 -0.0000
vn 0.0000 0.0000 -1.0000
usemtl Material
s off
f 1//1 2//1 3//1 4//1
f 5//2 8//2 7//2 6//2
f 1//3 5//3 6//3 2//3
f 2//4 6//4 7//4 3//4
f 3//5 7//5 8//5 4//5
f 5//6 1//6 4//6 8//6
