# Blender v2.78 (sub 0) OBJ File: ''
# www.blender.org
mtllib anim_000134.mtl
o Cube
v -7.203823 47.832096 29.346207
v 0.249056 44.093925 -35.449516
v 49.488197 1.927996 -27.353348
v 42.035305 5.666178 37.442387
v -49.488205 -1.927988 27.353334
v -42.035297 -5.666183 -37.442394
v 7.203833 -47.832104 -29.346197
v -0.249058 -44.093925 35.449516
vn -0.6472 -0.7617 -0.0305
vn 0.6472 0.7617 0.0305
vn 0.7537 -0.6454 0.1239
vn -0.1141 0.0572 0.9918
vn -0.7537 0.6454 -0.1239
vn 0.1141 -0.0572 -0.9918
usemtl Material
s off
f 1//1 2//1 3//1 4//1
f 5//2 8//2 7//2 6//2
f 1//3 5//3 6//3 2//3
f 2//4 6//4 7//4 3//4
f 3//5 7//5 8//5 4//5
f 5//6 1//6 4//6 8//6
