# Blender v2.78 (sub 0) OBJ File: ''
# www.blender.org
mtllib anim_000094.mtl
o Cube
v -14.660825 14.660825 14.660824
v -14.660825 14.660825 -14.660825
v 14.660827 14.660825 -14.660822
v 14.660820 14.660825 14.660830
v -14.660831 -14.660825 14.660817
v -14.660815 -14.660825 -14.660833
v 14.660830 -14.660825 -14.660820
v 14.660824 -14.660825 14.660825
vn 0.0000 -1.0000 -0.0000
vn 0.0000 1.0000 0.0000
vn 1.0000 0.0000 0.0000
vn -0.0000 -0.0000 1.0000
vn -1.0000 -0.0000 -0.0000
vn 0.0000 0.0000 -1.0000
usemtl Material
s off
f 1//1 2//1 3//1 4//1
f 5//2 8//2 7//2 6//2
f 1//3 5//3 6//3 2//3
f 2//4 6//4 7//4 3//4
f 3//5 7//5 8//5 4//5
f 5//6 1//6 4//6 8//6
