# Blender v2.78 (sub 0) OBJ File: ''
# www.blender.org
mtllib anim_000179.mtl
o Cube
v 0.628988 48.543968 29.053261
v 9.417510 43.075584 -35.451504
v 49.893173 -7.263634 -25.669346
v 41.104641 -1.795237 38.835426
v -49.893181 7.263639 25.669331
v -41.104633 1.795227 -38.835430
v -0.628981 -48.543976 -29.053251
v -9.417512 -43.075584 35.451504
vn -0.7733 -0.6319 -0.0518
vn 0.7733 0.6319 0.0518
vn 0.6196 -0.7705 0.1497
vn -0.1345 0.0837 0.9874
vn -0.6196 0.7705 -0.1497
vn 0.1345 -0.0837 -0.9874
usemtl Material
s off
f 1//1 2//1 3//1 4//1
f 5//2 8//2 7//2 6//2
f 1//3 5//3 6//3 2//3
f 2//4 6//4 7//4 3//4
f 3//5 7//5 8//5 4//5
f 5//6 1//6 4//6 8//6
