# Blender v2.78 (sub 0) OBJ File: ''
# www.blender.org
mtllib anim_000141.mtl
o Cube
v 43.229847 6.251987 35.959663
v 48.107914 -15.400507 -25.484455
v -3.599064 -54.169807 -15.927440
v -8.477118 -32.517296 45.516682
v 3.599073 54.169807 15.927426
v 8.477112 32.517288 -45.516689
v -43.229858 -6.251993 -35.959652
v -48.107910 15.400509 25.484455
vn -0.6066 0.7335 -0.3066
vn 0.6066 -0.7335 0.3066
vn -0.7915 -0.5934 0.1463
vn -0.0747 0.3314 0.9405
vn 0.7915 0.5934 -0.1463
vn 0.0747 -0.3314 -0.9405
usemtl Material
s off
f 1//1 2//1 3//1 4//1
f 5//2 8//2 7//2 6//2
f 1//3 5//3 6//3 2//3
f 2//4 6//4 7//4 3//4
f 3//5 7//5 8//5 4//5
f 5//6 1//6 4//6 8//6
