# Blender v2.78 (sub 0) OBJ File: ''
# www.blender.org
mtllib anim_000184.mtl
o Cube
v 22.068480 42.826382 29.662903
v 32.657116 31.497276 -33.799984
v 41.752800 -31.910074 -20.963192
v 31.164158 -20.580954 42.499699
v -41.752800 31.910086 20.963181
v -31.164154 20.580942 -42.499706
v -22.068480 -42.826393 -29.662891
v -32.657120 -31.497274 33.799984
vn -0.9769 -0.1671 -0.1332
vn 0.9769 0.1671 0.1332
vn 0.1392 -0.9706 0.1965
vn -0.1621 0.1734 0.9714
vn -0.1392 0.9706 -0.1965
vn 0.1621 -0.1734 -0.9714
usemtl Material
s off
f 1//1 2//1 3//1 4//1
f 5//2 8//2 7//2 6//2
f 1//3 5//3 6//3 2//3
f 2//4 6//4 7//4 3//4
f 3//5 7//5 8//5 4//5
f 5//6 1//6 4//6 8//6
