# Blender v2.78 (sub 0) OBJ File: ''
# www.blender.org
mtllib anim_000203.mtl
o Cube
v -0.451254 -34.991997 44.456280
v -12.044359 -52.465111 -17.416943
v -50.827301 -0.420202 -24.847809
v -39.234184 17.052900 37.025425
v 50.827309 0.420189 24.847801
v 39.234177 -17.052896 -37.025433
v 0.451248 34.992012 -44.456272
v 12.044361 52.465111 17.416943
vn 0.7849 0.5421 -0.3001
vn -0.7849 -0.5421 0.3001
vn -0.5936 0.7966 -0.1137
vn 0.1775 0.2675 0.9471
vn 0.5936 -0.7966 0.1137
vn -0.1775 -0.2675 -0.9471
usemtl Material
s off
f 1//1 2//1 3//1 4//1
f 5//2 8//2 7//2 6//2
f 1//3 5//3 6//3 2//3
f 2//4 6//4 7//4 3//4
f 3//5 7//5 8//5 4//5
f 5//6 1//6 4//6 8//6
