# Blender v2.78 (sub 0) OBJ File: ''
# www.blender.org
mtllib anim_000139.mtl
o Cube
v 43.172482 8.808891 35.490063
v 48.660961 -12.454968 -26.038227
v -0.510925 -54.273697 -15.972140
v -5.999392 -33.009827 45.556156
v 0.510935 54.273701 15.972127
v 5.999388 33.009819 -45.556164
v -43.172493 -8.808895 -35.490051
v -48.660957 12.454970 26.038227
vn -0.6530 0.6959 -0.2988
vn 0.6530 -0.6959 0.2988
vn -0.7527 -0.6401 0.1541
vn -0.0840 0.3255 0.9418
vn 0.7527 0.6401 -0.1541
vn 0.0840 -0.3255 -0.9418
usemtl Material
s off
f 1//1 2//1 3//1 4//1
f 5//2 8//2 7//2 6//2
f 1//3 5//3 6//3 2//3
f 2//4 6//4 7//4 3//4
f 3//5 7//5 8//5 4//5
f 5//6 1//6 4//6 8//6
