# Blender v2.78 (sub 0) OBJ File: ''
# www.blender.org
mtllib anim_000137.mtl
o Cube
v 42.620750 13.670040 34.606445
v 49.204025 -6.751295 -27.099600
v 5.385841 -53.954472 -16.152777
v -1.197426 -33.533127 45.553268
v -5.385832 53.954479 16.152761
v 1.197418 33.533115 -45.553276
v -42.620758 -13.670048 -34.606430
v -49.204025 6.751297 27.099600
vn -0.7348 0.6166 -0.2825
vn 0.7348 -0.6166 0.2825
vn -0.6707 -0.7225 0.1676
vn -0.1008 0.3126 0.9445
vn 0.6707 0.7225 -0.1676
vn 0.1008 -0.3126 -0.9445
usemtl Material
s off
f 1//1 2//1 3//1 4//1
f 5//2 8//2 7//2 6//2
f 1//3 5//3 6//3 2//3
f 2//4 6//4 7//4 3//4
f 3//5 7//5 8//5 4//5
f 5//6 1//6 4//6 8//6
