# Blender v2.78 (sub 0) OBJ File: ''
# www.blender.org
mtllib anim_000210.mtl
o Cube
v -37.002663 -12.218259 41.018555
v -48.511559 -17.788254 -23.048027
v -21.233637 40.728142 -33.035671
v -9.724747 46.298126 31.030916
v 21.233631 -40.728153 33.035660
v 9.724749 -46.298115 -31.030924
v 37.002670 12.218270 -41.018547
v 48.511559 17.788250 23.048027
vn 0.8914 -0.4364 -0.1222
vn -0.8914 0.4364 0.1222
vn 0.4175 0.8957 -0.1529
vn 0.1762 0.0853 0.9807
vn -0.4175 -0.8957 0.1529
vn -0.1762 -0.0853 -0.9807
usemtl Material
s off
f 1//1 2//1 3//1 4//1
f 5//2 8//2 7//2 6//2
f 1//3 5//3 6//3 2//3
f 2//4 6//4 7//4 3//4
f 3//5 7//5 8//5 4//5
f 5//6 1//6 4//6 8//6
