# Blender v2.78 (sub 0) OBJ File: ''
# www.blender.org
mtllib anim_000212.mtl
o Cube
v -41.670609 8.780550 37.248714
v -48.789700 7.385210 -27.677223
v 4.371134 44.774265 -34.309807
v 11.490210 46.169594 30.616140
v -4.371143 -44.774273 34.309795
v -11.490204 -46.169594 -30.616148
v 41.670620 -8.780542 -37.248707
v 48.789696 -7.385212 27.677223
vn 0.5709 -0.8198 -0.0450
vn -0.5709 0.8198 0.0450
vn 0.8137 0.5723 -0.1015
vn 0.1090 0.0214 0.9938
vn -0.8137 -0.5723 0.1015
vn -0.1090 -0.0214 -0.9938
usemtl Material
s off
f 1//1 2//1 3//1 4//1
f 5//2 8//2 7//2 6//2
f 1//3 5//3 6//3 2//3
f 2//4 6//4 7//4 3//4
f 3//5 7//5 8//5 4//5
f 5//6 1//6 4//6 8//6
