# Blender v2.78 (sub 0) OBJ File: ''
# www.blender.org
mtllib anim_000218.mtl
o Cube
v -20.868105 42.800972 30.554924
v -16.662432 41.525112 -34.627056
v 44.210129 18.215900 -30.243176
v 40.004440 19.491764 34.938812
v -44.210144 -18.215897 30.243164
v -40.004433 -19.491768 -34.938816
v 20.868116 -42.800976 -30.554916
v 16.662430 -41.525112 34.627056
vn -0.3573 -0.9340 -0.0048
vn 0.3573 0.9340 0.0048
vn 0.9318 -0.3568 0.0671
vn -0.0644 0.0195 0.9977
vn -0.9318 0.3568 -0.0671
vn 0.0644 -0.0195 -0.9977
usemtl Material
s off
f 1//1 2//1 3//1 4//1
f 5//2 8//2 7//2 6//2
f 1//3 5//3 6//3 2//3
f 2//4 6//4 7//4 3//4
f 3//5 7//5 8//5 4//5
f 5//6 1//6 4//6 8//6
