# Blender v2.78 (sub 0) OBJ File: ''
# www.blender.org
mtllib anim_000193.mtl
o Cube
v 39.111519 -11.325945 39.281250
v 39.122944 -34.593132 -21.764996
v -24.567554 -48.187408 -16.595581
v -24.578964 -24.920218 44.450668
v 24.567566 48.187408 16.595570
v 24.578955 24.920212 -44.450672
v -39.111530 11.325947 -39.281239
v -39.122944 34.593132 21.764996
vn -0.2226 0.9110 -0.3472
vn 0.2226 -0.9110 0.3472
vn -0.9749 -0.2081 0.0791
vn -0.0002 0.3561 0.9344
vn 0.9749 0.2081 -0.0791
vn 0.0002 -0.3561 -0.9344
usemtl Material
s off
f 1//1 2//1 3//1 4//1
f 5//2 8//2 7//2 6//2
f 1//3 5//3 6//3 2//3
f 2//4 6//4 7//4 3//4
f 3//5 7//5 8//5 4//5
f 5//6 1//6 4//6 8//6
