# Blender v2.78 (sub 0) OBJ File: ''
# www.blender.org
mtllib anim_000061.mtl
o Cube
v -32.675610 32.675610 32.675606
v -32.675610 32.675610 -32.675610
v 32.675613 32.675610 -32.675602
v 32.675598 32.675610 32.675621
v -32.675625 -32.675610 32.675591
v -32.675587 -32.675610 -32.675629
v 32.675621 -32.675610 -32.675598
v 32.675606 -32.675610 32.675610
vn 0.0000 -1.0000 0.0000
vn 0.0000 1.0000 -0.0000
vn 1.0000 0.0000 0.0000
vn -0.0000 -0.0000 1.0000
vn -1.0000 -0.0000 -0.0000
vn 0.0000 0.0000 -1.0000
usemtl Material
s off
f 1//1 2//1 3//1 4//1
f 5//2 8//2 7//2 6//2
f 1//3 5//3 6//3 2//3
f 2//4 6//4 7//4 3//4
f 3//5 7//5 8//5 4//5
f 5//6 1//6 4//6 8//6
