# Blender v2.78 (sub 0) OBJ File: ''
# www.blender.org
mtllib anim_000197.mtl
o Cube
v 27.036190 -26.154436 42.261028
v 21.664719 -48.769112 -18.794109
v -41.757881 -33.099693 -19.018261
v -36.386391 -10.485022 42.036880
v 41.757893 33.099686 19.018250
v 36.386383 10.485022 -42.036888
v -27.036201 26.154442 -42.261017
v -21.664717 48.769112 18.794109
vn 0.2253 0.9070 -0.3558
vn -0.2253 -0.9070 0.3558
vn -0.9708 0.2399 -0.0034
vn 0.0822 0.3462 0.9346
vn 0.9708 -0.2399 0.0034
vn -0.0822 -0.3462 -0.9346
usemtl Material
s off
f 1//1 2//1 3//1 4//1
f 5//2 8//2 7//2 6//2
f 1//3 5//3 6//3 2//3
f 2//4 6//4 7//4 3//4
f 3//5 7//5 8//5 4//5
f 5//6 1//6 4//6 8//6
